<mxfile host="app.diagrams.net" modified="2024-02-17T05:21:28.884Z" agent="Mozilla/5.0 (Windows NT 10.0; Win64; x64) AppleWebKit/537.36 (KHTML, like Gecko) Chrome/121.0.0.0 Safari/537.36" version="23.1.5" etag="cNBsMMXgnI_D5-brihdx" type="github">
  <diagram name="Page-1" id="jCPSM0DOkxRQojgGk1aC">
    <mxGraphModel>
      <root>
        <mxCell id="0" />
        <mxCell id="1" parent="0" />
      </root>
    </mxGraphModel>
  </diagram>
</mxfile>
